<?xml version="1.0" encoding="UTF-8" standalone="no"?>
<svg
   xmlns:dc="http://purl.org/dc/elements/1.1/"
   xmlns:cc="http://creativecommons.org/ns#"
   xmlns:rdf="http://www.w3.org/1999/02/22-rdf-syntax-ns#"
   xmlns:svg="http://www.w3.org/2000/svg"
   xmlns="http://www.w3.org/2000/svg"
   xmlns:sodipodi="http://sodipodi.sourceforge.net/DTD/sodipodi-0.dtd"
   xmlns:inkscape="http://www.inkscape.org/namespaces/inkscape"
   version="1.1"
   id="Capa_1"
   x="0px"
   y="0px"
   viewBox="0 0 14.380007 14"
   xml:space="preserve"
   sodipodi:docname="bulletList.svg"
   width="14.380007"
   height="14"
   inkscape:version="1.0.1 (3bc2e813f5, 2020-09-07)"><metadata
   id="metadata118"><rdf:RDF><cc:Work
       rdf:about=""><dc:format>image/svg+xml</dc:format><dc:type
         rdf:resource="http://purl.org/dc/dcmitype/StillImage" /><dc:title></dc:title></cc:Work></rdf:RDF></metadata><defs
   id="defs116" /><sodipodi:namedview
   pagecolor="#ffffff"
   bordercolor="#666666"
   borderopacity="1"
   objecttolerance="10"
   gridtolerance="10"
   guidetolerance="10"
   inkscape:pageopacity="0"
   inkscape:pageshadow="2"
   inkscape:window-width="1024"
   inkscape:window-height="705"
   id="namedview114"
   showgrid="false"
   fit-margin-top="0"
   fit-margin-left="0"
   fit-margin-right="0"
   fit-margin-bottom="0"
   inkscape:zoom="24.495174"
   inkscape:cx="7.1509321"
   inkscape:cy="8.4103469"
   inkscape:window-x="1016"
   inkscape:window-y="-8"
   inkscape:window-maximized="1"
   inkscape:current-layer="g81" />
<g
   id="g81"
   transform="translate(-221.70949,-220.43919)">
	
	<path
   d="m 226.57524,223.81149 h 8.28106 c 0.6811,0 1.2332,-0.75489 1.2332,-1.68616 0,-0.93125 -0.5521,-1.68614 -1.2332,-1.68614 h -8.28106 c -0.6811,0 -1.2332,0.75489 -1.2332,1.68614 0,0.93127 0.5521,1.68616 1.2332,1.68616 z"
   id="path67"
   style="stroke-width:0.0360499" />
	
	<path
   d="m 234.85633,225.75307 h -8.28109 c -0.6811,0 -1.2332,0.7549 -1.2332,1.68615 0,0.93125 0.5521,1.68614 1.2332,1.68614 h 8.28106 c 0.6811,0 1.2332,-0.75489 1.2332,-1.68614 0,-0.93125 -0.5521,-1.68615 -1.23317,-1.68615 z"
   id="path71"
   style="stroke-width:0.0360499" />
	
	<path
   d="m 234.85633,231.0669 h -8.28109 c -0.6811,0 -1.2332,0.75489 -1.2332,1.68616 0,0.93125 0.5521,1.68613 1.2332,1.68613 h 8.28106 c 0.6811,0 1.2332,-0.75488 1.2332,-1.68613 0,-0.93127 -0.5521,-1.68616 -1.23317,-1.68616 z"
   id="path75"
   style="stroke-width:0.0360499" />
	
	
<text
   xml:space="preserve"
   style="font-size:5.33333px;line-height:1.25;font-family:sans-serif;word-spacing:0px"
   x="221.48553"
   y="223.44701"
   id="text122"><tspan
     sodipodi:role="line"
     id="tspan120"
     x="221.48553"
     y="223.44701"
     style="font-style:normal;font-variant:normal;font-weight:bold;font-stretch:normal;font-size:5.33333px;font-family:sans-serif;-inkscape-font-specification:'sans-serif Bold'">a</tspan></text><text
   xml:space="preserve"
   style="font-size:5.33333px;line-height:1.25;font-family:sans-serif;word-spacing:0px"
   x="221.26678"
   y="229.29128"
   id="text122-9"><tspan
     sodipodi:role="line"
     id="tspan120-6"
     x="221.26678"
     y="229.29128"
     style="font-style:normal;font-variant:normal;font-weight:bold;font-stretch:normal;font-size:5.33333px;font-family:sans-serif;-inkscape-font-specification:'sans-serif Bold'">b</tspan></text><text
   xml:space="preserve"
   style="font-size:5.33333px;line-height:1.25;font-family:sans-serif;word-spacing:0px"
   x="221.48033"
   y="234.14439"
   id="text122-9-6"><tspan
     sodipodi:role="line"
     id="tspan120-6-8"
     x="221.48033"
     y="234.14439"
     style="font-style:normal;font-variant:normal;font-weight:bold;font-stretch:normal;font-size:5.33333px;font-family:sans-serif;-inkscape-font-specification:'sans-serif Bold'">c</tspan></text></g>
<g
   id="g83"
   transform="translate(-221.70949,-220.43919)">
</g>
<g
   id="g85"
   transform="translate(-221.70949,-220.43919)">
</g>
<g
   id="g87"
   transform="translate(-221.70949,-220.43919)">
</g>
<g
   id="g89"
   transform="translate(-221.70949,-220.43919)">
</g>
<g
   id="g91"
   transform="translate(-221.70949,-220.43919)">
</g>
<g
   id="g93"
   transform="translate(-221.70949,-220.43919)">
</g>
<g
   id="g95"
   transform="translate(-221.70949,-220.43919)">
</g>
<g
   id="g97"
   transform="translate(-221.70949,-220.43919)">
</g>
<g
   id="g99"
   transform="translate(-221.70949,-220.43919)">
</g>
<g
   id="g101"
   transform="translate(-221.70949,-220.43919)">
</g>
<g
   id="g103"
   transform="translate(-221.70949,-220.43919)">
</g>
<g
   id="g105"
   transform="translate(-221.70949,-220.43919)">
</g>
<g
   id="g107"
   transform="translate(-221.70949,-220.43919)">
</g>
<g
   id="g109"
   transform="translate(-221.70949,-220.43919)">
</g>
<g
   id="g111"
   transform="translate(-221.70949,-220.43919)">
</g>
</svg>
