<?xml version="1.0" encoding="UTF-8" standalone="no"?>
<!-- Generator: Adobe Illustrator 16.0.0, SVG Export Plug-In . SVG Version: 6.00 Build 0)  -->

<svg
   xmlns:dc="http://purl.org/dc/elements/1.1/"
   xmlns:cc="http://creativecommons.org/ns#"
   xmlns:rdf="http://www.w3.org/1999/02/22-rdf-syntax-ns#"
   xmlns:svg="http://www.w3.org/2000/svg"
   xmlns="http://www.w3.org/2000/svg"
   xmlns:sodipodi="http://sodipodi.sourceforge.net/DTD/sodipodi-0.dtd"
   xmlns:inkscape="http://www.inkscape.org/namespaces/inkscape"
   version="1.1"
   id="Capa_1"
   x="0px"
   y="0px"
   width="16.000002"
   height="16"
   viewBox="0 0 16.000002 16"
   xml:space="preserve"
   sodipodi:docname="numberedList.svg"
   inkscape:version="1.0.1 (3bc2e813f5, 2020-09-07)"><metadata
   id="metadata304"><rdf:RDF><cc:Work
       rdf:about=""><dc:format>image/svg+xml</dc:format><dc:type
         rdf:resource="http://purl.org/dc/dcmitype/StillImage" /><dc:title></dc:title></cc:Work></rdf:RDF></metadata><defs
   id="defs302"><inkscape:path-effect
     effect="powerclip"
     id="path-effect468"
     is_visible="true"
     lpeversion="1"
     inverse="true"
     flatten="false"
     hide_clip="false"
     message="Use fill-rule evenodd on &lt;b&gt;fill and stroke&lt;/b&gt; dialog if no flatten result after convert clip to paths." /><inkscape:path-effect
     effect="powerclip"
     id="path-effect464"
     is_visible="true"
     lpeversion="1"
     inverse="true"
     flatten="false"
     hide_clip="false"
     message="Use fill-rule evenodd on &lt;b&gt;fill and stroke&lt;/b&gt; dialog if no flatten result after convert clip to paths." /><clipPath
     clipPathUnits="userSpaceOnUse"
     id="clipPath456"><path
       d="M 75.942001,298.066 H 39.682 c 0.193001,-4.76 3.571001,-9.756 10.137999,-14.985 6.567002,-5.232 13.747001,-10.037 21.555,-14.417 7.801002,-4.381 14.939002,-10.514 21.412,-18.412 6.472,-7.9 9.707001,-16.608 9.707001,-26.125 0,-13.515 -4.756999,-24.222 -14.273,-32.121 -9.514,-7.898 -21.223,-11.849 -35.116999,-11.849 -11.042,0 -21.083001,2.71198 -30.124001,8.138 -9.04,5.424 -15.8430001,12.991 -20.412,22.701 l 24.27,16.844 c 6.663001,-11.042 14.371001,-16.56 23.124999,-16.56 4.762001,0 8.520001,1.28501 11.281002,3.854 2.757012,2.574 4.141001,6.235 4.141001,10.994 0,4.377 -2.238004,8.66 -6.711001,12.847 -4.475002,4.187 -9.851001,8.326 -16.134,12.419 -6.28,4.093 -12.563001,8.615 -18.842001,13.563 -6.28,4.949 -11.661,11.417 -16.134,19.411 -4.4710001,7.994 -6.70799988,16.847 -6.70799988,26.553 0,3.425 0.57099998,8.56501 1.71099978,15.41701 H 105.92 V 280.936 280.932 H 75.942001 Z"
       id="path458"
       style="display:none;stroke-width:1" /></clipPath><clipPath
     clipPathUnits="userSpaceOnUse"
     id="clipPath460"><path
       d="M 75.942001,298.066 H 39.682 c 0.193001,-4.76 3.571001,-9.756 10.137999,-14.985 6.567002,-5.232 13.747001,-10.037 21.555,-14.417 7.801002,-4.381 14.939002,-10.514 21.412,-18.412 6.472,-7.9 9.707001,-16.608 9.707001,-26.125 0,-13.515 -4.756999,-24.222 -14.273,-32.121 -9.514,-7.898 -21.223,-11.849 -35.116999,-11.849 -11.042,0 -21.083001,2.71198 -30.124001,8.138 -9.04,5.424 -15.8430001,12.991 -20.412,22.701 l 24.27,16.844 c 6.663001,-11.042 14.371001,-16.56 23.124999,-16.56 4.762001,0 8.520001,1.28501 11.281002,3.854 2.757012,2.574 4.141001,6.235 4.141001,10.994 0,4.377 -2.238004,8.66 -6.711001,12.847 -4.475002,4.187 -9.851001,8.326 -16.134,12.419 -6.28,4.093 -12.563001,8.615 -18.842001,13.563 -6.28,4.949 -11.661,11.417 -16.134,19.411 -4.4710001,7.994 -6.70799988,16.847 -6.70799988,26.553 0,3.425 0.57099998,8.56501 1.71099978,15.41701 H 105.92 V 280.936 280.932 H 75.942001 Z"
       id="path462"
       style="display:none;stroke-width:1" /></clipPath></defs><sodipodi:namedview
   pagecolor="#ffffff"
   bordercolor="#666666"
   borderopacity="1"
   objecttolerance="10"
   gridtolerance="10"
   guidetolerance="10"
   inkscape:pageopacity="0"
   inkscape:pageshadow="2"
   inkscape:window-width="1024"
   inkscape:window-height="705"
   id="namedview300"
   showgrid="false"
   fit-margin-top="0"
   fit-margin-left="0"
   fit-margin-right="0"
   fit-margin-bottom="0"
   inkscape:zoom="0.344487"
   inkscape:cx="-472.48521"
   inkscape:cy="83.128434"
   inkscape:window-x="1016"
   inkscape:window-y="-8"
   inkscape:window-maximized="1"
   inkscape:current-layer="Capa_1"
   inkscape:snap-global="false" />
<g
   id="g267"
   transform="matrix(0.03153704,0,0,0.03143085,-0.02699571,0)">
	<g
   id="g265">
		<path
   d="M 75.377,0 H 45.111 L 6.284,36.258 26.552,57.958 C 34.546,50.917 39.305,45.773 40.829,42.541 H 41.4 v 3.427 c 0,7.613 -0.05,19.126 -0.144,34.545 -0.096,15.417 -0.144,27.027 -0.144,34.831 h -30.55 v 28.266 h 95.646 V 115.344 H 75.377 Z"
   id="path253"
   clip-path="url(#clipPath460)"
   inkscape:original-d="M 75.377,0 H 45.111 L 6.284,36.258 26.552,57.958 C 34.546,50.917 39.305,45.773 40.829,42.541 H 41.4 v 3.427 c 0,7.613 -0.05,19.126 -0.144,34.545 -0.096,15.417 -0.144,27.027 -0.144,34.831 h -30.55 v 28.266 h 95.646 V 115.344 H 75.377 Z"
   inkscape:path-effect="#path-effect468" />
		<path
   d="m 505.489,73.232 c -1.816,-1.809 -3.952,-2.712 -6.43,-2.712 H 151.886 c -2.474,0 -4.611,0.903 -6.423,2.712 -1.805,1.809 -2.708,3.949 -2.708,6.424 v 54.817 c 0,2.475 0.9,4.615 2.708,6.424 1.812,1.807 3.949,2.712 6.423,2.712 h 347.176 c 2.478,0 4.617,-0.905 6.427,-2.712 1.808,-1.809 2.707,-3.949 2.707,-6.424 V 79.656 c 0.004,-2.474 -0.899,-4.615 -2.707,-6.424 z"
   id="path255" />
		
		
		<path
   d="M 499.06,362.876 H 151.886 c -2.663,0 -4.853,0.858 -6.563,2.569 -1.713,1.712 -2.568,3.901 -2.568,6.564 v 54.819 c 0,2.475 0.9,4.616 2.708,6.423 1.812,1.808 3.949,2.711 6.423,2.711 h 347.176 c 2.478,0 4.617,-0.896 6.427,-2.711 1.808,-1.807 2.707,-3.948 2.707,-6.423 V 372.01 c 0,-2.471 -0.906,-4.613 -2.707,-6.42 -1.813,-1.808 -3.952,-2.714 -6.429,-2.714 z"
   id="path261" />
		<path
   d="M 499.06,216.698 H 151.886 c -2.663,0 -4.853,0.855 -6.563,2.568 -1.713,1.713 -2.568,3.903 -2.568,6.567 v 54.818 c 0,2.475 0.9,4.613 2.708,6.424 1.812,1.81 3.949,2.714 6.423,2.714 h 347.176 c 2.478,0 4.617,-0.904 6.427,-2.714 1.808,-1.811 2.707,-3.949 2.707,-6.424 v -54.818 c 0,-2.474 -0.906,-4.615 -2.707,-6.423 -1.813,-1.808 -3.952,-2.712 -6.429,-2.712 z"
   id="path263" />
	<path
   id="path474"
   sodipodi:type="arc"
   sodipodi:cx="58.384922"
   sodipodi:cy="96.686501"
   sodipodi:rx="41.708466"
   sodipodi:ry="53.394039"
   sodipodi:start="0"
   sodipodi:end="6.2294815"
   sodipodi:open="true"
   sodipodi:arc-type="arc"
   d="M 100.09339,96.686501 A 41.708466,53.394039 0 0 1 58.944881,150.07573 41.708466,53.394039 0 0 1 16.691492,98.12006 41.708466,53.394039 0 0 1 56.705449,43.335766 41.708466,53.394039 0 0 1 100.03326,93.820416"
   style="stroke-width:31.7623" /></g>
</g>
<g
   id="g269"
   transform="translate(-246.52601,-246.527)">
</g>
<g
   id="g271"
   transform="translate(-246.52601,-246.527)">
</g>
<g
   id="g273"
   transform="translate(-246.52601,-246.527)">
</g>
<g
   id="g275"
   transform="translate(-246.52601,-246.527)">
</g>
<g
   id="g277"
   transform="translate(-246.52601,-246.527)">
</g>
<g
   id="g279"
   transform="translate(-246.52601,-246.527)">
</g>
<g
   id="g281"
   transform="translate(-246.52601,-246.527)">
</g>
<g
   id="g283"
   transform="translate(-246.52601,-246.527)">
</g>
<g
   id="g285"
   transform="translate(-246.52601,-246.527)">
</g>
<g
   id="g287"
   transform="translate(-246.52601,-246.527)">
</g>
<g
   id="g289"
   transform="translate(-246.52601,-246.527)">
</g>
<g
   id="g291"
   transform="translate(-246.52601,-246.527)">
</g>
<g
   id="g293"
   transform="translate(-246.52601,-246.527)">
</g>
<g
   id="g295"
   transform="translate(-246.52601,-246.527)">
</g>
<g
   id="g297"
   transform="translate(-246.52601,-246.527)">
</g>
</svg>
