<?xml version="1.0" encoding="UTF-8"?>
<svg xmlns="http://www.w3.org/2000/svg" xmlns:xlink="http://www.w3.org/1999/xlink" width="9pt" height="9pt" viewBox="0 0 9 9" version="1.1">
<g id="surface1">
<path style=" stroke:none;fill-rule:nonzero;fill:rgb(0%,0%,0%);fill-opacity:1;" d="M 4 3.183594 C 3.984375 3.167969 3.96875 3.160156 3.949219 3.160156 C 3.929688 3.160156 3.914062 3.167969 3.898438 3.175781 C 3.523438 3.464844 3.25 3.691406 2.878906 4.0625 C 2.070312 4.867188 1.496094 5.667969 1.210938 6.375 C 1.152344 6.515625 1.113281 6.648438 1.082031 6.777344 L 0.894531 6.960938 C 0.820312 7.035156 0.820312 7.152344 0.894531 7.222656 L 0.964844 7.292969 C 0.957031 7.296875 0.953125 7.304688 0.949219 7.308594 L 0.0820312 8.175781 C 0.015625 8.238281 -0.0117188 8.316406 0.00390625 8.386719 C 0.0195312 8.457031 0.078125 8.515625 0.164062 8.542969 L 0.886719 8.796875 C 0.933594 8.8125 0.984375 8.820312 1.039062 8.820312 C 1.1875 8.820312 1.335938 8.765625 1.425781 8.675781 L 1.871094 8.230469 C 1.875 8.226562 1.878906 8.21875 1.886719 8.214844 L 1.957031 8.285156 C 1.988281 8.320312 2.035156 8.339844 2.085938 8.339844 C 2.136719 8.339844 2.179688 8.320312 2.214844 8.285156 L 2.402344 8.097656 C 3.175781 7.90625 4.152344 7.265625 5.117188 6.300781 C 5.492188 5.925781 5.71875 5.652344 6.007812 5.273438 C 6.03125 5.242188 6.027344 5.210938 6 5.183594 Z M 4 3.183594 "/>
<path style=" stroke:none;fill-rule:nonzero;fill:rgb(0%,0%,0%);fill-opacity:1;" d="M 8.925781 2.390625 L 6.785156 0.253906 C 6.738281 0.203125 6.679688 0.179688 6.617188 0.179688 C 6.539062 0.179688 6.46875 0.214844 6.421875 0.28125 L 5.855469 1.082031 C 5.777344 1.191406 5.636719 1.355469 5.542969 1.449219 L 4.863281 2.128906 C 4.753906 2.238281 4.753906 2.414062 4.863281 2.519531 L 6.65625 4.316406 C 6.710938 4.367188 6.777344 4.398438 6.851562 4.398438 C 6.925781 4.398438 6.996094 4.367188 7.050781 4.316406 L 7.726562 3.636719 C 7.824219 3.542969 7.988281 3.402344 8.097656 3.324219 L 8.894531 2.753906 C 8.957031 2.710938 8.992188 2.648438 9 2.582031 C 9.003906 2.511719 8.980469 2.445312 8.925781 2.390625 Z M 8.925781 2.390625 "/>
</g>
</svg>
