<?xml version="1.0" encoding="UTF-8"?>
<svg xmlns="http://www.w3.org/2000/svg" xmlns:xlink="http://www.w3.org/1999/xlink" width="12pt" height="12pt" viewBox="0 0 12 12" version="1.1">
<g id="surface1">
<path style=" stroke:none;fill-rule:nonzero;fill:rgb(0%,0%,0%);fill-opacity:1;" d="M 11.453125 1.089844 L 0.546875 1.089844 C 0.246094 1.089844 0 1.335938 0 1.636719 L 0 10.363281 C 0 10.664062 0.246094 10.910156 0.546875 10.910156 L 11.453125 10.910156 C 11.753906 10.910156 12 10.664062 12 10.363281 L 12 1.636719 C 12 1.335938 11.753906 1.089844 11.453125 1.089844 Z M 5.453125 4.363281 L 5.453125 6.546875 L 1.089844 6.546875 L 1.089844 4.363281 Z M 6.546875 4.363281 L 10.910156 4.363281 L 10.910156 6.546875 L 6.546875 6.546875 Z M 1.089844 7.636719 L 5.453125 7.636719 L 5.453125 9.816406 L 1.089844 9.816406 Z M 6.546875 9.816406 L 6.546875 7.636719 L 10.910156 7.636719 L 10.910156 9.816406 Z M 6.546875 9.816406 "/>
</g>
</svg>
